<svg xmlns="http://www.w3.org/2000/svg" viewBox="0 0 757 757"><path fill="#343434" d="M0 378.501v378.502l378.75-.252 378.75-.251.251-378.25L758.003 0H0v378.501m.495.499c0 208.175.115 293.338.255 189.25.14-104.087.14-274.412 0-378.5C.61 85.663.495 170.825.495 379m380.04-160.271c-3.281.211-6.618.921-7.415 1.577-4.069 3.35-105.527 120.504-111.524 128.776l-1.753 2.418-3.355-4c-1.845-2.2-11.079-13.45-20.521-25-9.441-11.55-23.383-28.425-30.98-37.5-41.866-50.006-48.522-57.867-52.285-61.75l-4.118-4.25H116v35c0 27.308.275 35.01 1.25 35.047.688.027 7.881.006 15.986-.044l14.736-.093.264 32.295.264 32.295 8.347.292c11.981.419 11.153 2.602 11.153-29.417v-27.381l3.283 3.753c1.806 2.064 5.832 6.903 8.946 10.753 3.115 3.85 10.975 13.372 17.467 21.16 24.96 29.942 53.048 64.061 56.842 69.047 4.677 6.148 5.335 6.308 8.476 2.06 2.612-3.533 12.814-15.863 27.938-33.767 22.56-26.708 33.546-38.999 34.855-39.001.381 0 .693 11.813.693 26.25V383.5l8.25.29 8.25.291v-75.776l6.53-7.652c3.591-4.209 6.853-7.653 7.25-7.653.396 0 .604 59.351.463 131.89-.219 112.076-.048 131.971 1.138 132.426.767.294 8.308.456 16.757.36l15.362-.176V388c0-168.807-.008-169.5-2-169.578-1.1-.042-4.684.096-7.965.307m52.715.052-12.25.281V337h33v-59c0-46.492-.265-59.016-1.25-59.077-.687-.042-2.6-.155-4.25-.25s-8.512-.047-15.25.108m175.193-.002-12.057.279-39.459 39.721c-21.702 21.847-53.493 53.955-70.646 71.351-17.153 17.397-31.433 31.384-31.734 31.083-.301-.3-.547-2.271-.547-4.38V353h-33.009l.254 102.25.255 102.25 14 .288c7.7.158 15.012.037 16.25-.27l2.25-.556V410.624l2.25-3.305c2.807-4.123 2.852-4.12 6.776.431 1.779 2.063 5.771 6.45 8.872 9.75 32.351 34.43 53.699 57.264 64.04 68.5 6.834 7.425 24.831 26.689 39.994 42.81l27.568 29.309 19-.299c10.45-.165 20.446-.529 22.212-.81l3.213-.51-13.628-15c-7.496-8.25-29.9-32.325-49.786-53.5-19.886-21.175-41.266-44.125-47.511-51a14017.209 14017.209 0 0 0-30.927-33.87c-10.765-11.753-19.709-21.723-19.875-22.155-.166-.432 35.494-36.716 79.245-80.63 43.751-43.915 79.549-80.431 79.552-81.147.004-1.014-2.696-1.235-12.245-1-6.737.166-17.676.428-24.307.581m7.972 49.595c-3.019 1.361-7.415 5.993-7.415 7.813 0 .504-18.225 19.153-40.5 41.442S528 358.589 528 359.12c0 1.392 9.062 10.88 10.392 10.88.615 0 18.438-17.325 39.608-38.5 33.567-33.576 38.875-38.5 41.495-38.502 6.6-.003 14.505-6.912 14.505-12.678 0-9.209-9.437-15.62-17.585-11.946M116.149 306.32c-.865 1.043-1.093 32.883-.903 126.287L115.5 557.5h19v-252l-8.597-.287c-6.408-.213-8.892.069-9.754 1.107m467.041 62.033c-10.471 5.81-6.173 23.656 5.695 23.643 6.226-.006 13.115-6.352 13.115-12.081 0-8.732-11.344-15.705-18.81-11.562M148 462.857c0 85.64.155 94.988 1.582 95.536 3.279 1.258 16.136.652 17.356-.819.892-1.074 1.107-17.121.873-64.974l-.311-63.548 6.137 6.083c4.404 4.365 6.292 7.043 6.689 9.483 1.902 11.726 14.42 15.834 22.155 7.271 6.928-7.668 2.391-19.9-8.007-21.587-2.677-.434-4.731-1.682-6.894-4.187-1.694-1.962-6.782-7.55-11.308-12.418l-8.227-8.85-.273-18.174-.272-18.173-9.75-.286-9.75-.286v94.929m361.622-87.98-6.876 6.929 16.469 17.347c9.057 9.541 19.577 20.756 23.377 24.923 38.806 42.557 51.681 55.847 53.259 54.978.907-.5 4.325-3.631 7.595-6.958l5.946-6.05-2.027-2.273c-22.675-25.422-88.162-95.201-89.672-95.548-.658-.152-4.29 2.842-8.071 6.652m-211.16 5.187c-7.705 2.241-11.315 10.769-7.586 17.923 1.317 2.527 2.124 5.926 2.124 8.948v4.874l-12.25 12.074-12.25 12.074-9.985.022-9.985.021-11.765-11.734L225 412.531l-.003-5.015c-.002-3.212.771-6.476 2.147-9.075 6.242-11.786-8.009-24.315-18.048-15.868-5.314 4.471-6.002 13.221-1.454 18.506.907 1.055 1.358 4.322 1.358 9.85v8.272l12.632 13.15c6.947 7.232 14.141 14.611 15.985 16.399l3.354 3.25h34.606l16.711-16.817L309 418.367v-7.639c0-6.499.373-8.189 2.5-11.323 4.743-6.99 2.172-15.719-5.539-18.804-2.201-.881-4.105-1.56-4.231-1.511-.127.05-1.597.488-3.268.974M326 409.621v9.621l-19.208 19.629c-10.565 10.796-22.602 22.885-26.75 26.865l-7.542 7.235-35.366.015c-30.602.012-36.003-.212-40.096-1.666-10.199-3.622-19.911 5.983-15.636 15.463 1.778 3.943 7.512 8.217 11.024 8.217 2.193 0 8.87-3.447 10.513-5.427 1.146-1.381 5.987-1.573 39.566-1.573h38.26l22.588-23.026 22.588-23.026.279 28.776c.154 15.827.138 30.014-.036 31.526l-.317 2.75-42.683-.035c-35.12-.03-43.127-.289-45.184-1.465-5.716-3.267-14.666-.981-17.483 4.467-5.577 10.785 7.071 22.525 17.579 16.317 1.597-.943 2.904-2.068 2.904-2.5 0-.431 19.125-.784 42.5-.784H326v17.378c0 20.396-.271 19.852 9.66 19.42l6.84-.298.256-78.75.256-78.75H326v9.621m290.415 71.748c-13.094 5.923-7.378 26.231 6.846 24.323 7.379-.99 12.653-8.584 10.784-15.526-2.101-7.803-10.529-12.009-17.63-8.797" fill-rule="evenodd"/></svg>